<svg xmlns="http://www.w3.org/2000/svg" xmlns:xlink="http://www.w3.org/1999/xlink" viewBox="0 0 1920 100">
  <defs>
    <style>
      .cls-1 {
        clip-path: url(#clip-INTELLECTO_NAVBAR_BG_1920x100px_TEST);
      }

      .cls-2 {
        fill: url(#linear-gradient);
      }

      .cls-3 {
        fill: #80aeff;
      }

      .cls-4 {
        fill: #fff;
      }
    </style>
    <linearGradient id="linear-gradient" x1="0.057" y1="0.056" x2="0.944" y2="0.944" gradientUnits="objectBoundingBox">
      <stop offset="0.005" stop-color="#679af4"/>
      <stop offset="0.99" stop-color="#5166f4"/>
    </linearGradient>
    <clipPath id="clip-INTELLECTO_NAVBAR_BG_1920x100px_TEST">
      <rect width="1920" height="100"/>
    </clipPath>
  </defs>
  <g id="INTELLECTO_NAVBAR_BG_1920x100px_TEST" class="cls-1">
    <g id="Group_239" data-name="Group 239" transform="translate(-5381 159)">
      <g id="Group_237" data-name="Group 237" transform="translate(-101.3 202)">
        <g id="Group_234" data-name="Group 234" transform="translate(6404.832 -376.468)">
          <path id="Path_58" data-name="Path 58" class="cls-2" d="M497.046,355.128H386.882A34.578,34.578,0,0,1,352.2,320.446V210.281A34.578,34.578,0,0,1,386.882,175.6H497.046a34.578,34.578,0,0,1,34.681,34.681V320.446A34.578,34.578,0,0,1,497.046,355.128Z" transform="translate(-352.2 -175.6)"/>
        </g>
        <g id="Group_235" data-name="Group 235" transform="translate(6392.3 -389)">
          <path id="Path_59" data-name="Path 59" class="cls-3" d="M511.69,375.6H388.41a40.61,40.61,0,0,1-40.51-40.51V211.81a40.61,40.61,0,0,1,40.51-40.51H511.69a40.61,40.61,0,0,1,40.51,40.51V335.09A40.424,40.424,0,0,1,511.69,375.6ZM388.7,174.506a37.376,37.376,0,0,0-37.3,37.3V335.09a37.376,37.376,0,0,0,37.3,37.3h123.28a37.376,37.376,0,0,0,37.3-37.3V211.81a37.376,37.376,0,0,0-37.3-37.3Z" transform="translate(-347.9 -171.3)"/>
        </g>
      </g>
      <g id="_001-wallet" data-name="001-wallet" transform="translate(6321.039 -153)">
        <g id="Group_193" data-name="Group 193" transform="translate(21.961 0)">
          <g id="Group_192" data-name="Group 192">
            <path id="Path_1" data-name="Path 1" class="cls-4" d="M126.2,21.5,88.087.863A8.037,8.037,0,0,0,77.543,4.027L55.25,45.449H28.137a6.108,6.108,0,0,0-6.176,6.176v67.03a6.108,6.108,0,0,0,6.176,6.176h86.611a6.108,6.108,0,0,0,6.176-6.176V102.99h2.561a2.379,2.379,0,0,0,2.41-2.41V82.655a2.379,2.379,0,0,0-2.41-2.41h-2.561V62.621A6.285,6.285,0,0,0,116.1,56.6l13.255-24.552A7.9,7.9,0,0,0,126.2,21.5ZM99.083,12.311l-23.8,44.134H68.505L93.961,9.6ZM81.911,6.286a2.963,2.963,0,0,1,3.916-1.205L89.593,7.19,63.083,56.445H54.8ZM26.63,51.475a1.454,1.454,0,0,1,1.356-1.205H52.539l-3.314,6.025H27.986a4.17,4.17,0,0,0-1.356.151V51.475Zm89.323,67.18a1.35,1.35,0,0,1-1.356,1.356H27.986a1.35,1.35,0,0,1-1.356-1.356V62.621a1.35,1.35,0,0,1,1.356-1.356h86.461a1.35,1.35,0,0,1,1.356,1.356V80.245h-9.188a7.232,7.232,0,0,0-7.23,7.23v8.285a7.232,7.232,0,0,0,7.23,7.23h9.339Zm4.82-33.59h.151v13.1h-14.31a2.379,2.379,0,0,1-2.41-2.41V87.475a2.379,2.379,0,0,1,2.41-2.41Zm4.218-55.431-14.46,26.812H80.706L103.3,14.721l20.486,11.147A2.635,2.635,0,0,1,124.991,29.633Z" transform="translate(-21.961 0)"/>
          </g>
        </g>
        <g id="Group_195" data-name="Group 195" transform="translate(103.582 26.024)">
          <g id="Group_194" data-name="Group 194">
            <path id="Path_2" data-name="Path 2" class="cls-4" d="M250.93,70.458l-1.205-.6a6.594,6.594,0,0,0-8.736,2.561l-1.506,2.862a6.345,6.345,0,0,0-.452,4.971,6.066,6.066,0,0,0,3.163,3.766l1.205.6a6.856,6.856,0,0,0,3.013.753,6.775,6.775,0,0,0,5.724-3.314l1.506-2.862A6.75,6.75,0,0,0,250.93,70.458Zm-1.657,6.477L247.767,79.8a1.7,1.7,0,0,1-2.259.6l-1.205-.753a2.214,2.214,0,0,1-.753-.9,1.137,1.137,0,0,1,.151-1.205l1.506-2.862a2,2,0,0,1,1.506-.9,1.358,1.358,0,0,1,.753.151l1.205.6A2.343,2.343,0,0,1,249.273,76.935Z" transform="translate(-238.71 -69.108)"/>
          </g>
        </g>
      </g>
    </g>
    <rect id="Rectangle_76" data-name="Rectangle 76" class="cls-4" width="1920" height="100"/>
  </g>
</svg>
